<mxfile host="65bd71144e">
    <diagram id="hyLqfFfreGTfDCUPsIdt" name="Page-1">
        <mxGraphModel dx="1204" dy="630" grid="1" gridSize="10" guides="1" tooltips="1" connect="1" arrows="1" fold="1" page="1" pageScale="1" pageWidth="827" pageHeight="1169" math="0" shadow="0">
            <root>
                <mxCell id="0"/>
                <mxCell id="1" parent="0"/>
                <mxCell id="117" value="" style="rounded=0;whiteSpace=wrap;html=1;fontSize=9;" vertex="1" parent="1">
                    <mxGeometry x="410" y="380" width="60" height="20" as="geometry"/>
                </mxCell>
                <mxCell id="2" value="" style="rounded=0;whiteSpace=wrap;html=1;" parent="1" vertex="1">
                    <mxGeometry width="820" height="40" as="geometry"/>
                </mxCell>
                <mxCell id="3" value="" style="rounded=1;whiteSpace=wrap;html=1;" parent="1" vertex="1">
                    <mxGeometry x="630" y="10" width="60" height="20" as="geometry"/>
                </mxCell>
                <mxCell id="4" value="" style="rounded=1;whiteSpace=wrap;html=1;" parent="1" vertex="1">
                    <mxGeometry x="710" y="10" width="60" height="20" as="geometry"/>
                </mxCell>
                <mxCell id="5" value="LOGO HERE" style="text;html=1;strokeColor=none;fillColor=none;align=center;verticalAlign=middle;whiteSpace=wrap;rounded=0;" parent="1" vertex="1">
                    <mxGeometry x="60" y="5" width="90" height="30" as="geometry"/>
                </mxCell>
                <mxCell id="6" value="Admin Console" style="text;strokeColor=none;fillColor=none;html=1;fontSize=24;fontStyle=1;verticalAlign=middle;align=center;" parent="1" vertex="1">
                    <mxGeometry x="364" y="65" width="100" height="40" as="geometry"/>
                </mxCell>
                <mxCell id="54" value="Log In/Out" style="text;html=1;strokeColor=none;fillColor=none;align=center;verticalAlign=middle;whiteSpace=wrap;rounded=0;fontSize=10;" parent="1" vertex="1">
                    <mxGeometry x="630" y="5" width="60" height="30" as="geometry"/>
                </mxCell>
                <mxCell id="55" value="Admin" style="text;html=1;strokeColor=none;fillColor=none;align=center;verticalAlign=middle;whiteSpace=wrap;rounded=0;fontSize=10;" parent="1" vertex="1">
                    <mxGeometry x="710" y="5" width="60" height="30" as="geometry"/>
                </mxCell>
                <mxCell id="56" value="&lt;font style=&quot;font-size: 19px&quot;&gt;&lt;b&gt;Auctions&lt;/b&gt;&lt;/font&gt;" style="text;html=1;strokeColor=none;fillColor=none;align=center;verticalAlign=middle;whiteSpace=wrap;rounded=0;" vertex="1" parent="1">
                    <mxGeometry x="94" y="120" width="60" height="30" as="geometry"/>
                </mxCell>
                <mxCell id="57" value="&lt;font style=&quot;font-size: 16px&quot;&gt;Add Auction&lt;/font&gt;" style="text;html=1;strokeColor=none;fillColor=none;align=center;verticalAlign=middle;whiteSpace=wrap;rounded=0;fontSize=19;" vertex="1" parent="1">
                    <mxGeometry x="80" y="150" width="130" height="30" as="geometry"/>
                </mxCell>
                <mxCell id="58" value="" style="rounded=0;whiteSpace=wrap;html=1;fontSize=16;" vertex="1" parent="1">
                    <mxGeometry x="100" y="180" width="300" height="20" as="geometry"/>
                </mxCell>
                <mxCell id="59" value="" style="rounded=0;whiteSpace=wrap;html=1;fontSize=16;" vertex="1" parent="1">
                    <mxGeometry x="420" y="180" width="80" height="20" as="geometry"/>
                </mxCell>
                <mxCell id="60" value="" style="rounded=0;whiteSpace=wrap;html=1;fontSize=16;" vertex="1" parent="1">
                    <mxGeometry x="518" y="180" width="72" height="20" as="geometry"/>
                </mxCell>
                <mxCell id="61" value="" style="rounded=1;whiteSpace=wrap;html=1;fontSize=16;" vertex="1" parent="1">
                    <mxGeometry x="610" y="180" width="70" height="20" as="geometry"/>
                </mxCell>
                <mxCell id="62" value="Auction Title" style="text;html=1;strokeColor=none;fillColor=none;align=center;verticalAlign=middle;whiteSpace=wrap;rounded=0;fontSize=11;" vertex="1" parent="1">
                    <mxGeometry x="60" y="175" width="180" height="30" as="geometry"/>
                </mxCell>
                <mxCell id="63" value="Start Date" style="text;html=1;strokeColor=none;fillColor=none;align=center;verticalAlign=middle;whiteSpace=wrap;rounded=0;fontSize=11;" vertex="1" parent="1">
                    <mxGeometry x="430" y="175" width="60" height="30" as="geometry"/>
                </mxCell>
                <mxCell id="65" value="End Date" style="text;html=1;strokeColor=none;fillColor=none;align=center;verticalAlign=middle;whiteSpace=wrap;rounded=0;fontSize=11;" vertex="1" parent="1">
                    <mxGeometry x="524" y="175" width="60" height="30" as="geometry"/>
                </mxCell>
                <mxCell id="66" value="Add Auction" style="text;html=1;strokeColor=none;fillColor=none;align=center;verticalAlign=middle;whiteSpace=wrap;rounded=0;fontSize=11;" vertex="1" parent="1">
                    <mxGeometry x="600" y="175" width="90" height="30" as="geometry"/>
                </mxCell>
                <mxCell id="67" value="Auction Title" style="text;html=1;strokeColor=none;fillColor=none;align=center;verticalAlign=middle;whiteSpace=wrap;rounded=0;fontSize=14;fontStyle=1" vertex="1" parent="1">
                    <mxGeometry x="40" y="220" width="180" height="30" as="geometry"/>
                </mxCell>
                <mxCell id="68" value="Starts" style="text;html=1;strokeColor=none;fillColor=none;align=center;verticalAlign=middle;whiteSpace=wrap;rounded=0;fontSize=14;fontStyle=1" vertex="1" parent="1">
                    <mxGeometry x="309" y="220" width="60" height="30" as="geometry"/>
                </mxCell>
                <mxCell id="69" value="&lt;font style=&quot;font-size: 14px&quot;&gt;&lt;b&gt;Ends&lt;/b&gt;&lt;/font&gt;" style="text;html=1;strokeColor=none;fillColor=none;align=center;verticalAlign=middle;whiteSpace=wrap;rounded=0;fontSize=11;" vertex="1" parent="1">
                    <mxGeometry x="388" y="220" width="60" height="30" as="geometry"/>
                </mxCell>
                <mxCell id="70" value="" style="endArrow=none;html=1;fontSize=14;exitX=0.25;exitY=1;exitDx=0;exitDy=0;" edge="1" parent="1">
                    <mxGeometry width="50" height="50" relative="1" as="geometry">
                        <mxPoint x="85" y="245" as="sourcePoint"/>
                        <mxPoint x="760" y="245" as="targetPoint"/>
                    </mxGeometry>
                </mxCell>
                <mxCell id="84" value="" style="group" vertex="1" connectable="0" parent="1">
                    <mxGeometry x="85" y="258" width="665" height="31" as="geometry"/>
                </mxCell>
                <mxCell id="77" value="" style="group" vertex="1" connectable="0" parent="84">
                    <mxGeometry x="405" width="260" height="20" as="geometry"/>
                </mxCell>
                <mxCell id="71" value="" style="rounded=1;whiteSpace=wrap;html=1;fontSize=14;" vertex="1" parent="77">
                    <mxGeometry y="3.333333333333333" width="65" height="13.333333333333332" as="geometry"/>
                </mxCell>
                <mxCell id="72" value="Edit" style="text;html=1;strokeColor=none;fillColor=none;align=center;verticalAlign=middle;whiteSpace=wrap;rounded=0;fontSize=14;" vertex="1" parent="77">
                    <mxGeometry x="4.642857142857143" width="55.714285714285715" height="20" as="geometry"/>
                </mxCell>
                <mxCell id="73" value="" style="rounded=1;whiteSpace=wrap;html=1;fontSize=14;" vertex="1" parent="77">
                    <mxGeometry x="83.57142857142857" y="3.333333333333333" width="92.85714285714286" height="13.333333333333332" as="geometry"/>
                </mxCell>
                <mxCell id="74" value="" style="rounded=1;whiteSpace=wrap;html=1;fontSize=14;" vertex="1" parent="77">
                    <mxGeometry x="195" y="3.333333333333333" width="65" height="13.333333333333332" as="geometry"/>
                </mxCell>
                <mxCell id="75" value="Manage Items" style="text;html=1;strokeColor=none;fillColor=none;align=center;verticalAlign=middle;whiteSpace=wrap;rounded=0;fontSize=14;" vertex="1" parent="77">
                    <mxGeometry x="78.92857142857143" width="102.14285714285715" height="20" as="geometry"/>
                </mxCell>
                <mxCell id="76" value="Delete" style="text;html=1;strokeColor=none;fillColor=none;align=center;verticalAlign=middle;whiteSpace=wrap;rounded=0;fontSize=14;" vertex="1" parent="77">
                    <mxGeometry x="199.64285714285714" width="55.714285714285715" height="20" as="geometry"/>
                </mxCell>
                <mxCell id="78" value="Sample Auction" style="text;html=1;strokeColor=none;fillColor=none;align=center;verticalAlign=middle;whiteSpace=wrap;rounded=0;fontSize=14;" vertex="1" parent="84">
                    <mxGeometry width="120" height="30" as="geometry"/>
                </mxCell>
                <mxCell id="79" value="xx/xx/xxx" style="text;html=1;strokeColor=none;fillColor=none;align=center;verticalAlign=middle;whiteSpace=wrap;rounded=0;fontSize=14;" vertex="1" parent="84">
                    <mxGeometry x="233" width="60" height="30" as="geometry"/>
                </mxCell>
                <mxCell id="82" value="xx/xx/xxx" style="text;html=1;strokeColor=none;fillColor=none;align=center;verticalAlign=middle;whiteSpace=wrap;rounded=0;fontSize=14;" vertex="1" parent="84">
                    <mxGeometry x="315" width="62" height="30" as="geometry"/>
                </mxCell>
                <mxCell id="83" value="" style="endArrow=none;html=1;fontSize=9;exitX=0.25;exitY=1;exitDx=0;exitDy=0;" edge="1" parent="84">
                    <mxGeometry width="50" height="50" relative="1" as="geometry">
                        <mxPoint x="10" y="31" as="sourcePoint"/>
                        <mxPoint x="665" y="31" as="targetPoint"/>
                    </mxGeometry>
                </mxCell>
                <mxCell id="85" value="" style="group" vertex="1" connectable="0" parent="1">
                    <mxGeometry x="86" y="298" width="665" height="31" as="geometry"/>
                </mxCell>
                <mxCell id="86" value="" style="group" vertex="1" connectable="0" parent="85">
                    <mxGeometry x="405" width="260" height="20" as="geometry"/>
                </mxCell>
                <mxCell id="87" value="" style="rounded=1;whiteSpace=wrap;html=1;fontSize=14;" vertex="1" parent="86">
                    <mxGeometry y="3.333333333333333" width="65" height="13.333333333333332" as="geometry"/>
                </mxCell>
                <mxCell id="88" value="Edit" style="text;html=1;strokeColor=none;fillColor=none;align=center;verticalAlign=middle;whiteSpace=wrap;rounded=0;fontSize=14;" vertex="1" parent="86">
                    <mxGeometry x="4.642857142857143" width="55.714285714285715" height="20" as="geometry"/>
                </mxCell>
                <mxCell id="89" value="" style="rounded=1;whiteSpace=wrap;html=1;fontSize=14;" vertex="1" parent="86">
                    <mxGeometry x="83.57142857142857" y="3.333333333333333" width="92.85714285714286" height="13.333333333333332" as="geometry"/>
                </mxCell>
                <mxCell id="90" value="" style="rounded=1;whiteSpace=wrap;html=1;fontSize=14;" vertex="1" parent="86">
                    <mxGeometry x="195" y="3.333333333333333" width="65" height="13.333333333333332" as="geometry"/>
                </mxCell>
                <mxCell id="91" value="Manage Items" style="text;html=1;strokeColor=none;fillColor=none;align=center;verticalAlign=middle;whiteSpace=wrap;rounded=0;fontSize=14;" vertex="1" parent="86">
                    <mxGeometry x="78.92857142857143" width="102.14285714285715" height="20" as="geometry"/>
                </mxCell>
                <mxCell id="92" value="Delete" style="text;html=1;strokeColor=none;fillColor=none;align=center;verticalAlign=middle;whiteSpace=wrap;rounded=0;fontSize=14;" vertex="1" parent="86">
                    <mxGeometry x="199.64285714285714" width="55.714285714285715" height="20" as="geometry"/>
                </mxCell>
                <mxCell id="93" value="Sample Auction" style="text;html=1;strokeColor=none;fillColor=none;align=center;verticalAlign=middle;whiteSpace=wrap;rounded=0;fontSize=14;" vertex="1" parent="85">
                    <mxGeometry width="120" height="30" as="geometry"/>
                </mxCell>
                <mxCell id="94" value="xx/xx/xxx" style="text;html=1;strokeColor=none;fillColor=none;align=center;verticalAlign=middle;whiteSpace=wrap;rounded=0;fontSize=14;" vertex="1" parent="85">
                    <mxGeometry x="233" width="60" height="30" as="geometry"/>
                </mxCell>
                <mxCell id="95" value="xx/xx/xxx" style="text;html=1;strokeColor=none;fillColor=none;align=center;verticalAlign=middle;whiteSpace=wrap;rounded=0;fontSize=14;" vertex="1" parent="85">
                    <mxGeometry x="315" width="62" height="30" as="geometry"/>
                </mxCell>
                <mxCell id="96" value="" style="endArrow=none;html=1;fontSize=9;exitX=0.25;exitY=1;exitDx=0;exitDy=0;" edge="1" parent="85">
                    <mxGeometry width="50" height="50" relative="1" as="geometry">
                        <mxPoint x="10" y="31" as="sourcePoint"/>
                        <mxPoint x="665" y="31" as="targetPoint"/>
                    </mxGeometry>
                </mxCell>
                <mxCell id="109" value="" style="swimlane;startSize=0;fontSize=9;dashed=1;" vertex="1" parent="1">
                    <mxGeometry x="100" y="370" width="465" height="40" as="geometry"/>
                </mxCell>
                <mxCell id="115" value="" style="rounded=0;whiteSpace=wrap;html=1;fontSize=9;" vertex="1" parent="109">
                    <mxGeometry x="3" y="10" width="200" height="20" as="geometry"/>
                </mxCell>
                <mxCell id="116" value="" style="rounded=0;whiteSpace=wrap;html=1;fontSize=9;" vertex="1" parent="109">
                    <mxGeometry x="220" y="10" width="70" height="20" as="geometry"/>
                </mxCell>
                <mxCell id="110" value="" style="rounded=1;whiteSpace=wrap;html=1;fontSize=14;" vertex="1" parent="109">
                    <mxGeometry x="392" y="13.333333333333314" width="65" height="13.333333333333332" as="geometry"/>
                </mxCell>
                <mxCell id="111" value="Save" style="text;html=1;strokeColor=none;fillColor=none;align=center;verticalAlign=middle;whiteSpace=wrap;rounded=0;fontSize=14;" vertex="1" parent="109">
                    <mxGeometry x="396.64285714285717" y="10" width="55.714285714285715" height="20" as="geometry"/>
                </mxCell>
                <mxCell id="112" value="Sample Auction" style="text;html=1;strokeColor=none;fillColor=none;align=center;verticalAlign=middle;whiteSpace=wrap;rounded=0;fontSize=14;" vertex="1" parent="109">
                    <mxGeometry x="-5" y="5" width="120" height="30" as="geometry"/>
                </mxCell>
                <mxCell id="113" value="xx/xx/xxx" style="text;html=1;strokeColor=none;fillColor=none;align=center;verticalAlign=middle;whiteSpace=wrap;rounded=0;fontSize=14;" vertex="1" parent="109">
                    <mxGeometry x="225" y="5" width="60" height="30" as="geometry"/>
                </mxCell>
                <mxCell id="114" value="xx/xx/xxx" style="text;html=1;strokeColor=none;fillColor=none;align=center;verticalAlign=middle;whiteSpace=wrap;rounded=0;fontSize=14;" vertex="1" parent="109">
                    <mxGeometry x="310" y="5" width="62" height="30" as="geometry"/>
                </mxCell>
                <mxCell id="98" value="" style="group" vertex="1" connectable="0" parent="1">
                    <mxGeometry x="491" y="335" width="260" height="20" as="geometry"/>
                </mxCell>
                <mxCell id="99" value="" style="rounded=1;whiteSpace=wrap;html=1;fontSize=14;" vertex="1" parent="98">
                    <mxGeometry y="3.333333333333333" width="65" height="13.333333333333332" as="geometry"/>
                </mxCell>
                <mxCell id="100" value="Edit" style="text;html=1;strokeColor=none;fillColor=none;align=center;verticalAlign=middle;whiteSpace=wrap;rounded=0;fontSize=14;" vertex="1" parent="98">
                    <mxGeometry x="4.642857142857143" width="55.714285714285715" height="20" as="geometry"/>
                </mxCell>
                <mxCell id="101" value="" style="rounded=1;whiteSpace=wrap;html=1;fontSize=14;" vertex="1" parent="98">
                    <mxGeometry x="83.57142857142857" y="3.333333333333333" width="92.85714285714286" height="13.333333333333332" as="geometry"/>
                </mxCell>
                <mxCell id="102" value="" style="rounded=1;whiteSpace=wrap;html=1;fontSize=14;" vertex="1" parent="98">
                    <mxGeometry x="195" y="3.333333333333333" width="65" height="13.333333333333332" as="geometry"/>
                </mxCell>
                <mxCell id="103" value="Manage Items" style="text;html=1;strokeColor=none;fillColor=none;align=center;verticalAlign=middle;whiteSpace=wrap;rounded=0;fontSize=14;" vertex="1" parent="98">
                    <mxGeometry x="78.92857142857143" width="102.14285714285715" height="20" as="geometry"/>
                </mxCell>
                <mxCell id="104" value="Delete" style="text;html=1;strokeColor=none;fillColor=none;align=center;verticalAlign=middle;whiteSpace=wrap;rounded=0;fontSize=14;" vertex="1" parent="98">
                    <mxGeometry x="199.64285714285714" width="55.714285714285715" height="20" as="geometry"/>
                </mxCell>
                <mxCell id="105" value="Sample Auction" style="text;html=1;strokeColor=none;fillColor=none;align=center;verticalAlign=middle;whiteSpace=wrap;rounded=0;fontSize=14;" vertex="1" parent="1">
                    <mxGeometry x="86" y="335" width="120" height="30" as="geometry"/>
                </mxCell>
                <mxCell id="106" value="xx/xx/xxx" style="text;html=1;strokeColor=none;fillColor=none;align=center;verticalAlign=middle;whiteSpace=wrap;rounded=0;fontSize=14;" vertex="1" parent="1">
                    <mxGeometry x="319" y="335" width="60" height="30" as="geometry"/>
                </mxCell>
                <mxCell id="107" value="xx/xx/xxx" style="text;html=1;strokeColor=none;fillColor=none;align=center;verticalAlign=middle;whiteSpace=wrap;rounded=0;fontSize=14;" vertex="1" parent="1">
                    <mxGeometry x="401" y="335" width="62" height="30" as="geometry"/>
                </mxCell>
                <mxCell id="108" value="" style="endArrow=none;html=1;fontSize=9;exitX=0.25;exitY=1;exitDx=0;exitDy=0;" edge="1" parent="1">
                    <mxGeometry width="50" height="50" relative="1" as="geometry">
                        <mxPoint x="96" y="419" as="sourcePoint"/>
                        <mxPoint x="751" y="419" as="targetPoint"/>
                    </mxGeometry>
                </mxCell>
                <mxCell id="118" value="Text" style="text;html=1;strokeColor=none;fillColor=none;align=center;verticalAlign=middle;whiteSpace=wrap;rounded=0;fontSize=9;" vertex="1" parent="1">
                    <mxGeometry x="380" y="260" width="60" height="30" as="geometry"/>
                </mxCell>
                <mxCell id="124" value="NOTE: Click Edit Button to reveal form to make changes to Auction info. &lt;br&gt;Save changes to hide form&amp;nbsp;" style="text;html=1;strokeColor=none;fillColor=none;align=center;verticalAlign=middle;whiteSpace=wrap;rounded=0;fontSize=9;" vertex="1" parent="1">
                    <mxGeometry x="567.5" y="375" width="185" height="30" as="geometry"/>
                </mxCell>
            </root>
        </mxGraphModel>
    </diagram>
</mxfile>